<mxfile host="app.diagrams.net" modified="2024-07-12T17:01:37.410Z" agent="Mozilla/5.0 (Macintosh; Intel Mac OS X 10_15_7) AppleWebKit/537.36 (KHTML, like Gecko) Chrome/126.0.0.0 Safari/537.36" etag="JinL8w0a5SQzPcFjpmbE" version="24.6.4" type="device">
  <diagram name="Page-1" id="5lGFZwwXY-dJLmttgMfC">
    <mxGraphModel dx="2074" dy="1121" grid="0" gridSize="10" guides="1" tooltips="1" connect="1" arrows="1" fold="1" page="1" pageScale="1" pageWidth="850" pageHeight="1100" math="0" shadow="0">
      <root>
        <mxCell id="0" />
        <mxCell id="1" parent="0" />
        <mxCell id="Kh05J_yHvE7UE8-_UGia-7" value="Availability Zone" style="fillColor=none;strokeColor=#147EBA;dashed=1;verticalAlign=top;fontStyle=0;fontColor=#147EBA;whiteSpace=wrap;html=1;" vertex="1" parent="1">
          <mxGeometry x="110" y="280" width="300" height="200" as="geometry" />
        </mxCell>
        <mxCell id="Kh05J_yHvE7UE8-_UGia-9" value="" style="rounded=0;whiteSpace=wrap;html=1;" vertex="1" parent="1">
          <mxGeometry x="150" y="320" width="220" height="140" as="geometry" />
        </mxCell>
        <mxCell id="Kh05J_yHvE7UE8-_UGia-4" value="VPC" style="sketch=0;outlineConnect=0;gradientColor=none;html=1;whiteSpace=wrap;fontSize=12;fontStyle=0;shape=mxgraph.aws4.group;grIcon=mxgraph.aws4.group_vpc;strokeColor=#879196;fillColor=none;verticalAlign=top;align=left;spacingLeft=30;fontColor=#879196;dashed=0;" vertex="1" parent="1">
          <mxGeometry x="90" y="250" width="340" height="250" as="geometry" />
        </mxCell>
        <mxCell id="Kh05J_yHvE7UE8-_UGia-13" style="edgeStyle=orthogonalEdgeStyle;rounded=0;orthogonalLoop=1;jettySize=auto;html=1;" edge="1" parent="1" source="Kh05J_yHvE7UE8-_UGia-3" target="Kh05J_yHvE7UE8-_UGia-10">
          <mxGeometry relative="1" as="geometry" />
        </mxCell>
        <mxCell id="Kh05J_yHvE7UE8-_UGia-3" value="Security group" style="fillColor=none;strokeColor=#DD3522;verticalAlign=top;fontStyle=0;fontColor=#DD3522;whiteSpace=wrap;html=1;" vertex="1" parent="1">
          <mxGeometry x="240" y="330" width="110" height="120" as="geometry" />
        </mxCell>
        <mxCell id="Kh05J_yHvE7UE8-_UGia-2" value="MySQL&amp;nbsp;&lt;div&gt;Instance&lt;/div&gt;" style="outlineConnect=0;dashed=0;verticalLabelPosition=bottom;verticalAlign=top;align=center;html=1;shape=mxgraph.aws3.rds_db_instance;fillColor=#2E73B8;gradientColor=none;" vertex="1" parent="1">
          <mxGeometry x="270.25" y="350" width="49.5" height="66" as="geometry" />
        </mxCell>
        <mxCell id="Kh05J_yHvE7UE8-_UGia-8" value="RDS Parameter Group" style="sketch=0;outlineConnect=0;fontColor=#232F3E;gradientColor=none;strokeColor=#ffffff;fillColor=#232F3E;dashed=0;verticalLabelPosition=middle;verticalAlign=bottom;align=center;html=1;whiteSpace=wrap;fontSize=10;fontStyle=1;spacing=3;shape=mxgraph.aws4.productIcon;prIcon=mxgraph.aws4.rds;" vertex="1" parent="1">
          <mxGeometry x="150" y="320" width="80" height="112" as="geometry" />
        </mxCell>
        <mxCell id="Kh05J_yHvE7UE8-_UGia-12" style="edgeStyle=orthogonalEdgeStyle;rounded=0;orthogonalLoop=1;jettySize=auto;html=1;entryX=1;entryY=0.5;entryDx=0;entryDy=0;" edge="1" parent="1" source="Kh05J_yHvE7UE8-_UGia-10" target="Kh05J_yHvE7UE8-_UGia-3">
          <mxGeometry relative="1" as="geometry" />
        </mxCell>
        <mxCell id="Kh05J_yHvE7UE8-_UGia-10" value="SingleStore" style="shape=image;verticalLabelPosition=bottom;labelBackgroundColor=default;verticalAlign=top;aspect=fixed;imageAspect=0;image=data:image/png,iVBORw0KGgoAAAANSUhEUgAAAOEAAADhCAMAAAAJbSJIAAAAgVBMVEUAAAD////Gxsa6urqnp6fy8vL8/Pzd3d2tra2Tk5N+fn7j4+P19fXKysrW1ta3t7ft7e1PT09ISEhYWFhjY2PX19eCgoImJibAwMBCQkJgYGDPz892dnYeHh6GhoY1NTWdnZ1sbGwwMDARERE9PT2Ojo4YGBiZmZkqKiogICA4ODhU0NbSAAAP9ElEQVR4nO1da3vyLAwWD/XQaj3rtDoPc277/z/wLVAgCdRnm1Dde/X+tDKtpITkTgqh0ahRo0aNGjVq1KhRo0aNGjVq1KhRo0aNGjVq1KhRo8ZT4XM2Iy0fm9VDehIGB8bYmrTt87aHdCYIBrk0TdLWZixSf79W3B//mOYSxqStxdhW/Z3/2a+4S57xyWyVXDDW0hfXJH8Eh3O1vboD+5hOOoeEecsBXB7jvKG7D9ovX0jd4rCz1TRADRsuYxK2b34w5OJkuG2cN72hlpe85Yt8M29qh+2bHxyZbTmbltAOZ3H5M/6D2Wq6zluwtYTOokBsu5QnhZiIF9TUsxRwDZyFBHcpG3UxGU/CdfBuTLiEI9TESU0LtYxoA38wHX2RPPd4driI77DFJjXEWZAWYa2IHjwSL+S6zWj/bVJjOYs+mLxCC/hXnoTOXenDPvHejWGLRWq4yCf0pTEk5/NCRHbw29Vf4cwd9Sdu400MPX8q4ZKa2wm0M2YU8YN6CDZSnXDjlbf1YAudmZazWBNhXgsJU7/d/Q0i0RFCKBklYJzUwOmaC7Sg37iihtOTDGFBYYjp5L6AMRjVU1LTJc4C2pkCb/weT5EHaAoJu6htSRVsTcaIGpGxnQTg2jGgbY+B1NMlaqPMjZIa4iwmZMg5uhbreRgyqacoOhIDezTXV0xqqLNo2jPuahPXx2Fr6ykNMJb2Jfy4RcxFdAWo6ezBCisHcWA1mcsXbBfbWMKrbWcSNFH3j+ZwhZ7CphTPzR3+P3EWHcvONJGPTR9PU6WewniCBhhYQuwsOGuYovtlaF6PmENJwiLb0Ba7CxGWiSFuh52FZWd20Huex4rBMetnQ2Fim/aBpafcPwAXiEkNfhqWBsZQaxlARWHxingCgYXoAXBggliaubSFw8LtjiHmB2pn2jAWLiZhAZzOCoXEOe9lDwAzE8qlnV4Ljih2Fh3Cr2cMc1gg4BhHXIEQF792wM1Lqqd8aAyP4f6hBy/05yw7ExHneNEC4tRIMOjolAQ2XdE41Ndnfqm1DZGaFuQHTRJ8bSnJLZSGxGMhoaPTIWp+l41mggqR1egM4OeRsyAa70ikFupRYcpfRackxNuLNkMmL3CgeSykXQJVX3ATHhZaTkGktqj5DoqV0husTlJPDf2EAiNSw4CzSLC6j11hfa7ISdWRYkcZN9j4Kdvm6noItRZI+AWM7BG7gNQV1o/st48VQFnUZAcaiZ4KuqomHP+7IDXQWQxR77kVswZrTGd8RegWIkYfoFHKrfkI9B+A1ICpxw0uiJ0ZjaTzAY8sx3SqKD21VfYGOLOVbFGmQtCRgfl4wQeAs8B2ZmGH9RtG31p9NCsLM1pKRGDl+khP58CnAFIDnEUEDUvfDuv5/RAZPQ2hYoRGW4k4N21ST4EAqjeA1Bhnwe2MJqgvVBrxWDowi1fI50hbBUJfiWic8QcaVhFg9PVnC8GN6iIrmVivgLvYH702mQaOJ/2gObfbBuoHTZh0lSZWXvBhKTqZaYV91QN3ZsAxrqlP2HVQnAzls4idD+RzakFfvKukPoOcUeppMbtEgCH0zJAa4yygneFPAHqexgQx8POQYTie950Yu9V/pn5RU5kveS1nlAkwDKkxckXmyXBWi2xmRqQgAvrP9xfJJnuxxEtU/EeHNm2gpyvTGS1hqtSR31P5d/oSP380EQp3R0TCGL9HuB+xvjWl+B8WSR0DPRXfE56+lxluIHvXRX4RvckZWoPURvJ1vfPwI7h7h0yBMyWpb/JSmDtuQtc05VEg7SjFnDAc1sd2tAt74F++vNNoonfJe22VDVO+C+jpuXfLrivRI/TehocuVrT7GVQ+jkkMZWziNVyUpMpRbTlu4wQO67nxouy0oU1NKPk4sgTKiB8yIanCD45KlNMCXgzFAxSXFEJRuoHziRcoIk4XrVWr7FyPrb8fsh4j4Bd6JdHuoBNevuL3DRLowLStkyP34f5+CUysUBLtViVfjjPiTjFQp6tqdMyhb9/dHe1y+UbVLQObdqGMW6NRS9V2+O2tX+xot1G5fBzzMZTRxHfzwoJufpnYnDP7bYGQb1si3/G7tuzn2EdQRm1ycjsf8fh++m0/AcEDYCpK6fh9XHK+EDRBhUhUpEKgSZGEePuNUr3iaLdRKt+srZ3TL37m+1hDGcc+/DC5B5dvQeRb7VM0RcJuYjgt4G91Pa8jXHL5EOObtWmM6Gs9yrr07fIMPc/hruxzP8cyofKZN0IIPn6M8/5ur0QLM2NykunWVx6Tj9+IMvbMKaGPfI2yKcODUw9VNoq/R5sufMyLfT5+W7vnfaeEPrYvgOA6au0dO3dE3reIX7NuZn/gRyiRr0iIBJmI5JbjnpUDWg1BgH6471X7KVcWt+b1LOnidOkjlfHheHDdNhFjY2fhfot+2cxC3ok1D97ixL1TOfKf6Hs0nd+BjsDjdO/1ZeJxWyJiPi3T6lYpvconPWwHWTU068WlUsa98AuV5oKljVuXoGtNsjQplXLRDvEWQWB1ESxtEWboKHaXplPAXSNbd4bXz3/f4WeQLC1q9StZJqTw0l5QAWVIv+pvx+t7faHGbp+KPaW9cAHgLRx7kI6CNOC07SdeE0PXvFazhq0E531LEVLfrw9y9NLsKTY9vx74sz5U9Gurr4/V52eAx/kPzCrbtNPFkz9KOuPxOB4Nm8M7UntPhVJX9f13B8+NS7mEVS1aCAzLRxncu5v2ODhuJq9fr6dV9bPcYFcu4N0RopuRJuO4OxoOt9ths9lct9JejvbhGmzSt529kFj8++s30b1x72g6z5aXS/96aHMR05avight/cz6l8sym0+jG724d93JjQkQrsTDUj+zda4jXFW2o248dnP/eyUsjw6D0Jlv4311+vr6mmxyO3HnndzhhEBFK+dDY10u4d8oJvNPtMolfHTXPGGZM79FnHPATkIMWoC1c26kla7SF9jtdquPr6oWz/NMcEm+vWqcszSA/yg2qrCodXlo0Ph2XXMl9rOmPoaZLUg5xg/LavBexOneW4o4W4+3fTkLloxg0aalVILi1JdD1/ZuDHbXIc9suSl3Rfn2jUi7jVuXYCZnaif2NJLUW2LPhdOlxdfmbdv+lyJTbG7m24P4kU3xNn1fXZ52cCPfvvVqe4oUu3x+Pm/8b7z3ywiyN+44a+OfKMuOTP2t//gi7ype2q5g1YcVKFLsGO6FXXwp8X3a+3XQf0ZsaHV/jvLtHHf9moQ7Qjw4PjnNP5rcqzV6JYCYe458LMi3Mz/v8d05ElsZvcjHcRULadTy+KvrIzLfzuGDJ06dElJv9DZirONr1qfbqbGeUcmL5pmgUl7eXDolxJ5wmrvmxGOmbYfWd5Uvmsv8pIPtidjELM23fByviM4swjpftBjJXgjB5esQTfKyUhFZzbC5e/UrWwfBnjjke++w3wSsk+KVqF7RNkBZhZDlaXNv2EkvrtX3k5EtH9lW9wO0uGibCGy3QOoThUt9lS2ndsrXOFp26NvobYrMl/k+qt0yrjYAFvLZ9oVvq/t1jKpX55n7rpCh6wZb12KhRD6xre6OfIoO6YGjn+EdV9Vk2iddl342yLa6n+2alyZarwSGhiXrQBkrKOJSKh/eVjdnyffnzWpdfFNvu0X+AS+fDVxwYCJiGNc2XN45YO9+0JWjWKYr55hmiZhUl++48oyZitHsf/E5BBzmTyo7SotZFCT6UG4QZ9XJjqtA24RmJga1Qjeyre5qdvbe0tVpKuxSB86wdzXtSCLhBUXAwwBrpmbwF2i3ybY6UAIiY0nJspv5WmlyoZrKzehtt8Qszzs3enA3ZjiHQEgU3VYHSkDoLdvGzq8yMVwvZqDkNNOzW/1WQpmUWbLsO1P0ThMZ6P3oG91WBwp48S3K0jDEKmbX83hs9D3Bz03tELDZg4rIvRsbmh+BpmZOf5Dv/lAj1tOf1RLwr+90bw+iraggppfEk223EGs03N5AN+UMzRSxttWhyo5mZJhiY7re0Dvoa4r11LgHe3nw1yhEXQy87qQJth/wIjL4PQKs7MjLn8iHwQuVyaiKR/ADc9NCEaWeHvRdNEl1kIt5iHMFQL6mCcO/rvU6GJWA6OopO9DqygMIU7VGOYmCzZhwXluVqg4SUh53CFMK74m1OhBVduQDV5h1U9MEVIYW1qT4bIvoqZukhoQtn7AP9AlHkK2lSIBisEERxSGcaQkdMU1SK1pimWtNE6eEMochwCUgGPKLLfO1gtGJKkWKEBT1fAAzKiGpwZCSlBePdumOJ1zZcclMQWAjLKwMLfqvPi5dBPTlJSS1IthFZORGMFz6S1Md7SzQcRdi8mnXIuWBIcm7yg0/prCgvfALV3Z8M3ZG2Bw14EDCo5jc6guFbUG7UzRJ9dn5b2DlPOyGVHZMgd/IGCp+qcte4aLRTcd4aZLqfVvOLcycT3XO8Ns1VlKoFFaGJocnuc7L0PnvCtcNFc6YpqJI31DhGVha15CagpAaO3KUd8b5Jh38VlYeQ3FGchAcrewI7QwqrYsqQ4uYz7Bc13kZhqSGXxshYDY/o0QMrew4RT2KgMai4y7o4UnOc10USa3Eop5gIAXauZdDoQ46hQvVJuWkRnNzeniS67wMNS+qOT3wDQgI6VSH8kc0NCdgXCCpadiHJ8ksN12DLyboz0oX/RoTKKJutSo74gJXA3iFj7uwDk+Sd6ZB06xCQ6PrQYIMvlXZkbsE4DBR9Xxy3AW/gjPYcV6G+NmgC70wVFVPw2l4oU7cAXTaH6nDTo67GFFHYJ+XUTnkTiugWfbxjGvMCBYoT8/QiFuHJ9nnEFSPCzboB9vMMbxSJEJ2KGaoUKKllPZ5GdVjAD0DrezYsE/hYogBNbEloYcnKZf7LAc+0cqOAtjOCGcB3m628AgLT2AdAfloPQWwD2ywTuEa4CFFx100XKezWudlPBJLB9egp/2Ro1ZEWVNwTQ5P4qDnEDwQor6L4/RilKFqYZKSkc7PbO9wloP4mNX5GJKm4hSOdQrXCI8ZOcOrSLPh+0qP9ASHr6n1ICg6tU77w85CpvPh/8nhSQJSTyuKl25ARxroIDjKIek0oxKSw5MEOLeLn6G6gn6/YJ42tTPUWdAzvBr08CSJi3t1afV4jekoMrpIwTo7NqYi48OTClS6PeYmpFHQGQvrFC56Xo5FaujhSU+IJvSJ9BQu4SxGtIGooBVgPBvAaegbu6tbalspqSGHJz05hnbCKKJzjJKahou5PS0sO2MlUm1S0ygCjMd7v2/AtjPiRAhsF9EZXhLZ0/DQf4ETsBi/VRxYQlukpiHV9G9MxL3YU0rLmZMPOSRcx39ni//5kHv0xHiDlp3+5BI+xanbv0d/awZpa7+Jj5/c+30POmi0nIWD1PxtWM5CvrI/PKArobCa0TcOs9kfn4U1atSoUaNGjRo1atSoUaNGjRo1atSoUaNGjRo1avz/8B9kNqsRis8qbgAAAABJRU5ErkJggg==;" vertex="1" parent="1">
          <mxGeometry x="533" y="346.25" width="87.5" height="87.5" as="geometry" />
        </mxCell>
      </root>
    </mxGraphModel>
  </diagram>
</mxfile>
